<svg width="98" height="160" viewBox="0 0 98 160" fill="none" xmlns="http://www.w3.org/2000/svg">
<rect x="16" y="56.3772" width="74" height="74" rx="8" fill="#F2F4F8"/>
<path d="M63.8193 85.7135C63.8193 85.7135 60.873 100.293 41.7179 97.6761C41.7179 97.6761 42.0861 108.891 47.9798 113.377C47.9798 113.377 67.503 108.518 63.8193 85.7135Z" fill="#131313"/>
<path d="M56.8211 73.3772C56.8211 78.3453 59.0311 87.9563 50.1909 95.0596C50.1909 95.0596 61.9785 93.9376 62.8773 83.4211C62.8773 83.4211 63.083 82.3497 60.873 78.2376C59.2087 75.1409 56.8211 73.3772 56.8211 73.3772Z" fill="#131313"/>
<g clip-path="url(#clip0_1128_35)">
<path d="M22.1224 159.042L16 146.712H19.4311L23.5922 155.744L27.9965 146.712H31.0949L24.9676 159.042H22.1274H22.1224Z" fill="#E2E5EB"/>
<path d="M29.6003 159.042L35.7177 146.712H38.558L44.6853 159.042H41.5273L37.1428 149.961L32.7534 159.042H29.5953H29.6003Z" fill="#E2E5EB"/>
<path d="M46.9645 146.712H54.3977C55.2816 146.712 56.0413 146.892 56.6918 147.252C57.3323 147.607 57.8289 148.102 58.1864 148.731C58.5389 149.361 58.7127 150.076 58.7127 150.881C58.7127 151.73 58.5091 152.48 58.102 153.135C57.6849 153.789 57.1734 154.259 56.5577 154.544L59.3086 159.042H55.9221L53.5487 155.034H49.9239V159.042H46.9694V152.395H54.4027C54.7999 152.395 55.1277 152.265 55.3809 152C55.6292 151.735 55.7583 151.36 55.7583 150.876C55.7583 150.391 55.6242 150.011 55.3511 149.746C55.073 149.481 54.7553 149.351 54.4027 149.351H46.9694V146.712H46.9645Z" fill="#E2E5EB"/>
<path d="M64.6961 158.533C63.5739 157.973 62.6702 157.198 61.9949 156.218C61.3246 155.234 60.9869 154.124 60.9869 152.88C60.9869 151.635 61.3246 150.521 61.9949 149.541C62.6653 148.556 63.569 147.787 64.6961 147.227C65.8282 146.657 67.0696 146.377 68.4351 146.377C69.8006 146.377 71.0519 146.657 72.184 147.227C73.3062 147.787 74.2099 148.556 74.8852 149.541C75.5556 150.521 75.8932 151.63 75.8932 152.88C75.8932 154.129 75.5556 155.234 74.8852 156.218C74.2149 157.198 73.3112 157.973 72.184 158.533C71.0519 159.092 69.8105 159.377 68.4351 159.377C67.0597 159.377 65.8282 159.097 64.6961 158.533ZM70.6596 156.098C71.3399 155.809 71.8861 155.394 72.3082 154.854C72.7203 154.309 72.9338 153.649 72.9338 152.88C72.9338 152.11 72.7203 151.445 72.3082 150.905C71.8861 150.361 71.3349 149.941 70.6596 149.656C69.9744 149.366 69.2345 149.221 68.4351 149.221C67.6357 149.221 66.9057 149.366 66.2205 149.661C65.5353 149.951 64.9841 150.366 64.567 150.91C64.1549 151.455 63.9414 152.11 63.9414 152.875C63.9414 153.639 64.1549 154.284 64.567 154.834C64.9792 155.384 65.5303 155.799 66.2205 156.093C66.9057 156.383 67.6456 156.528 68.4351 156.528C69.2246 156.528 69.9744 156.383 70.6596 156.093V156.098Z" fill="#E2E5EB"/>
<path d="M81.37 159.042C80.5954 158.822 79.9052 158.542 79.3193 158.183C78.7235 157.828 78.217 157.403 77.7949 156.908L79.652 154.854C79.9251 155.159 80.2528 155.439 80.6401 155.713C81.0274 155.988 81.4942 156.223 82.0404 156.428C82.5816 156.633 83.2023 156.738 83.8875 156.738C84.538 156.738 85.114 156.638 85.6304 156.443C86.1369 156.253 86.5341 156.033 86.8122 155.773C87.0902 155.514 87.2342 155.294 87.2342 155.104C87.2342 154.884 87.1151 154.719 86.8817 154.604C86.6483 154.489 86.3107 154.409 85.8638 154.354C85.4169 154.299 84.9203 154.254 84.3642 154.224C83.8279 154.194 83.2768 154.154 82.7157 154.094C82.1496 154.034 81.5985 153.934 81.0622 153.799C80.5358 153.664 80.0542 153.459 79.6123 153.184C79.1704 152.91 78.8277 152.545 78.5695 152.085C78.3064 151.63 78.1773 151.05 78.1773 150.356C78.1773 149.661 78.4106 149.011 78.8774 148.406C79.3441 147.802 79.9996 147.312 80.8536 146.942C81.7127 146.572 82.7256 146.382 83.8975 146.382C84.7962 146.382 85.6006 146.482 86.3007 146.677C87.0009 146.882 87.6215 147.142 88.1429 147.467C88.6692 147.787 89.1459 148.181 89.5829 148.641L87.701 150.54C87.3534 150.221 87.0158 149.966 86.6831 149.751C86.3603 149.541 85.9829 149.366 85.546 149.236C85.109 149.101 84.5827 149.041 83.9471 149.041C83.1477 149.041 82.4326 149.186 81.812 149.481C81.1863 149.776 80.8785 150.071 80.8785 150.361C80.8785 150.62 81.0125 150.825 81.2757 150.965C81.5488 151.11 81.9311 151.225 82.4227 151.3C82.9143 151.375 83.4605 151.435 84.0663 151.49C84.7316 151.55 85.4069 151.625 86.0872 151.735C86.7724 151.84 87.408 152.01 87.9939 152.245C88.5799 152.48 89.0665 152.83 89.4439 153.284C89.8212 153.739 90 154.349 90 155.114C90 155.878 89.7567 156.563 89.275 157.218C88.7835 157.873 88.0933 158.392 87.1796 158.797C86.266 159.192 85.1736 159.387 83.9024 159.387C82.9888 159.387 82.1446 159.272 81.37 159.052V159.042Z" fill="#E2E5EB"/>
</g>
<defs>
<clipPath id="clip0_1128_35">
<rect width="74" height="13" fill="white" transform="translate(16 146.377)"/>
</clipPath>
</defs>
</svg>
